# xmcd CD database file
#
# Track frame offsets:
#	150
#	20160
#	42467
#
# Disc length: 883 seconds
#
# Revision: 0
# Processed by: cddbd v1.5.1PL2 Copyright (c) Steve Scherf et al.
# Submitted via: CDex 1.51
#
DISCID=23037103
DTITLE=椎名祐海 - 太陽
DYEAR=1998
DGENRE=Rock
TTITLE0=太陽
TTITLE1=青空
TTITLE2=Ｔｉｍｅ　Ｃｒｉｍｅ〜あの頃見てた太陽〜
EXTD=YEAR: 1998
EXTT0=
EXTT1=
EXTT2=
PLAYORDER=
